PathFileType	4	(X/Y/Z)	Patient4_TMGait_0pt2_03_left_19.trc.trc
DataRate	CameraRate	NumFrames	NumMarkers	Units	OrigDataRate	OrigDataStartFrame	OrigNumFrames
45.602605863192	45.602605863192	6	33	mm	45.602605863192	106	       141
Frame#	Time	Sacral			L.Shoulder			Chest			R.Shoulder			Neck			R.ASIS			L.ASIS			R.Thigh.Superior			R.Thigh.Lateral			R.Thigh.Inferior			R.Patella			L.Thigh.Superior			L.Thigh.Lateral			L.Thigh.Inferior			L.Patella			L.Shank.Superior			L.Shank.Lateral			L.Shank.Inferior			R.Shank.Superior			R.Shank.Lateral			R.Shank.Inferior			R.Heel			R.Midfoot.Superior			R.Midfoot.Lateral			R.Toe			L.Heel			L.Midfoot.Lateral			L.Midfoot.Superior			L.Toe			L.Elbow			L.Wrist			R.Elbow			R.Wrist			
		X1	Y1	Z1	X2	Y2	Z2	X3	Y3	Z3	X4	Y4	Z4	X5	Y5	Z5	X6	Y6	Z6	X7	Y7	Z7	X8	Y8	Z8	X9	Y9	Z9	X10	Y10	Z10	X11	Y11	Z11	X12	Y12	Z12	X13	Y13	Z13	X14	Y14	Z14	X15	Y15	Z15	X16	Y16	Z16	X17	Y17	Z17	X18	Y18	Z18	X19	Y19	Z19	X20	Y20	Z20	X21	Y21	Z21	X22	Y22	Z22	X23	Y23	Z23	X24	Y24	Z24	X25	Y25	Z25	X26	Y26	Z26	X27	Y27	Z27	X28	Y28	Z28	X29	Y29	Z29	X30	Y30	Z30	X31	Y31	Z31	X32	Y32	Z32	X33	Y33	Z33	

106	41.962500000000	778.462396041286	989.502915889948	576.555861812397	961.796336020713	1416.285674404055	385.798954402501	1066.163124783274	1343.439641702586	543.358615315012	992.745633400810	1420.572818647604	719.766494930587	956.639497601549	1479.452901522681	543.551132299159	1018.075698096401	928.311422163252	676.453813558718	982.744619192487	950.719055872769	405.733927999410	1070.016429498313	730.695257631722	625.664785403586	1004.107526712270	611.695769996125	684.012046111338	1071.963055243518	569.637139466239	589.909071140342	1077.739939976359	474.398308202445	589.615754271074	1081.420356798659	782.849919169592	434.762105719381	1045.791002957812	642.468913144666	348.686634093608	1158.422468846244	600.664445407776	418.885080685177	1181.710800378325	514.830127509466	406.030333395948	1125.831847485790	442.663132151306	388.038998709845	995.949816904687	381.554474786986	330.517159104109	1007.578505712370	247.433453525776	371.470804486449	1033.102526984449	386.252826905455	597.236228280478	956.097832151548	291.217245194881	666.988644221279	968.919537157734	195.862974951512	596.353231583221	808.341175497800	43.769432533934	583.774952343434	982.787714600314	95.623597754743	600.811293153862	898.692435910705	37.053764101579	649.454603378754	1104.990432951375	42.943516241655	617.194482350597	834.289710824418	149.456337958508	399.454617186027	896.907281394956	121.522454294148	315.889123363243	998.711836624222	143.482109604224	338.810735364465	1091.834587008283	48.370069097838	300.787054281463	861.666139637883	1072.875422127972	284.310642336841	845.610938160661	811.583811846911	290.972824504328	1042.247617472466	1084.400960522193	862.109592524404	1270.807426013156	966.476049986378	832.931273336714	
107	41.984428571429	778.877512081813	988.647566508662	580.432492975550	958.465885860549	1415.860398963800	387.400508829736	1065.775638112576	1342.779691350740	542.856339240983	995.726883242399	1419.700960801335	720.651508510999	956.241295654013	1478.702497917635	545.224376092642	1019.750781981404	927.380788065664	676.404938953706	980.564813667352	950.471724687379	406.243370419466	1070.491791450548	729.457952044171	624.615960064608	1005.370055171910	610.356696995300	683.630530636261	1071.782962676692	568.475112051191	588.388059395709	1077.250694572261	472.930238852648	587.842866251145	1080.187496348199	783.495382493847	435.944299586662	1045.429765705521	642.657994389065	350.458604127806	1157.495601872885	601.673465071710	421.323910956895	1182.555104217425	517.540786829006	408.653657310314	1130.718835011289	444.350990448644	389.834732135760	1005.986058354981	375.486622311013	331.065679768445	1026.131762466021	242.379242212639	371.868561903103	1031.805547931469	384.972605809918	595.946978425425	954.577658538528	290.521029048987	666.285460329218	965.831254032050	195.145718255238	595.654885223221	803.968885061808	43.822171310802	583.804706642515	978.419726702391	95.515790254256	600.545977721195	894.340291502095	37.060971708535	649.474376750428	1100.636114490243	42.715033991173	617.149870086673	860.092279721564	132.617741186727	398.581233782672	925.152812143748	109.635631363006	315.306194864089	1024.755200460838	138.459480693554	338.980516919408	1124.398733032448	50.564117797653	301.267475612234	845.994831562010	1076.486932134217	288.344716645121	817.454765512350	816.242370416219	298.176680651075	1059.888322936154	1085.299478259483	859.232873480550	1295.668419982211	987.722939384731	820.475902640991	
108	42.006357142857	779.421022813991	988.405487145019	584.010806661048	955.214349269119	1416.092767617977	388.963617582749	1065.488900905098	1342.664437799823	542.160033109108	998.894038992553	1419.329585442823	721.298439574253	955.969701949552	1478.466294174909	546.792982153480	1021.425836086833	926.826138930479	676.041985703844	978.507832338198	950.725931641379	406.443145871684	1070.414858362325	728.396077741666	623.507554685791	1005.726644352845	609.429363966181	683.304538217852	1070.645836658407	567.487895136726	587.058215070521	1075.602725373215	471.803312975521	586.350202217995	1078.379629391887	783.902352412575	436.496383299697	1043.719450171846	642.729379879204	351.637422534793	1155.178590906459	602.169334170868	422.885336560176	1181.775198637609	519.993710433188	410.508872054942	1134.266962575197	445.993876271544	391.079753288713	1015.510790595711	368.998055620509	330.969587523853	1044.571595760498	237.456597556937	371.963188528992	1029.599918521079	384.050453549644	594.907384670341	952.330722925337	290.009782582779	665.769907321952	962.352546053195	194.641511066564	595.110896522263	799.570040221174	43.878068810841	583.843701614663	974.018889681194	95.414716285324	600.312551028414	889.974157249431	37.061580562953	649.499962483129	1096.259927904426	42.516584980619	617.105279277859	886.653574836981	116.002717183828	397.361865165756	954.187102567549	97.707420966522	314.701633857120	1051.199554913873	133.530063900829	339.164496042636	1157.216286520870	53.154586101379	302.566051429168	831.615193327688	1081.093579962121	291.888428156724	793.359531694214	822.289736008292	305.094189031257	1077.292461912542	1087.270225634052	855.443354181896	1318.193546951514	1011.111594225687	806.668874092465	
109	42.028285714286	780.087413020934	988.789402512747	587.248497147956	952.103925447448	1416.973981100959	390.459120652812	1065.326182130797	1343.100763140989	541.280381410318	1002.220792763175	1419.488045993464	721.687683430498	955.838944126811	1478.754548460865	548.227108530249	1023.070490562901	926.659240469656	675.424006895286	976.611907655137	951.484483715376	406.384188127515	1069.781178911113	727.541122214537	622.421167906011	1005.144906939647	608.938666488559	683.087206120074	1068.560915550309	566.699442338700	586.010197192524	1072.809885110448	471.039010021755	585.235878204142	1076.121455272014	784.172394171999	436.418496854580	1040.850928205759	642.755116060426	352.203648734753	1151.765341105610	602.294230693191	423.485525998364	1179.640217275001	522.260035045349	411.529949342542	1136.578071709294	447.674369898459	391.774218611411	1024.424013119262	362.546576637718	330.320703566766	1062.403132334217	233.120893413364	371.873058295338	1026.491213489543	383.506083127420	594.187770852042	949.339568738547	289.699702245602	665.483290743266	958.484504838485	194.363757800970	594.753473933979	795.145827938429	43.937780787891	583.894949702793	969.588949380274	95.326400348671	600.128414296930	885.589900837173	37.055430038738	649.532493049148	1091.859515729157	42.351616058833	617.064058028803	913.180962258815	100.601897204514	396.008575582663	983.126572740719	86.539535163367	314.263946409722	1077.236847926166	129.197618606670	339.502643954783	1189.189676490065	56.288951121545	304.779765838796	818.729794499007	1086.457000706987	295.001579080581	773.274874612087	829.151507851457	311.593437635974	1094.372020988415	1090.328154613863	850.795411353091	1338.111199417672	1036.329362379127	791.772668398648	
110	42.050214285714	780.876948679155	989.753980779087	590.106305095645	949.199612329466	1418.437594189137	391.845686196901	1065.307576194060	1344.046234602463	540.226572669668	1005.664788887648	1420.157381835828	721.799091893448	955.857128691978	1479.529234049995	549.487827808397	1024.665323797133	926.853962153642	674.605745805910	974.916303915049	952.704704244036	406.112478032379	1068.625310960553	726.900054314021	621.410826686118	1003.660853738797	608.872326957682	683.005558998466	1065.600123860647	566.111763999000	585.291691859041	1068.959463010409	470.627400583738	584.546945893175	1073.558892992154	784.384401441351	435.737445065955	1037.058753835871	642.782130295528	352.187288289483	1147.574256311528	602.174672708426	423.116386789721	1176.441544675885	524.378902732204	411.725695901831	1137.776014855368	449.427543470474	391.954065059919	1032.587766095172	356.514925237610	329.245675703296	1079.121653348303	229.687842163069	371.701487460131	1022.545928151506	383.327338817202	593.818172847928	945.639220410380	289.589213236969	665.437864940840	954.254454038793	194.305858483647	594.592292261191	790.698444881720	43.999786642760	583.958362538708	965.136184055065	95.257355654013	600.007471740175	881.184541672264	37.042669157144	649.571770474637	1087.433838464640	42.222309390714	617.028445609815	938.821050087476	87.149218800903	394.709820368232	1011.042619521668	76.742598558248	314.124769846117	1102.048266646103	125.819385675726	340.077871089710	1219.287876245040	60.021380501914	307.863578449655	807.484143520265	1092.289771672986	297.731715564643	757.008702031649	836.308628499852	317.560898694625	1111.030464252767	1094.433922597564	845.360831927616	1355.229374818703	1062.950700182532	776.080832071102	
111	42.072142857143	781.793533401507	991.198305378683	592.549035075326	946.561103085309	1420.363571292163	393.073045392107	1065.447270463719	1345.412587783493	539.004608877465	1009.169488810527	1421.269379570751	721.614737936147	956.024949137540	1480.705904878409	550.530885598694	1026.204241283787	927.349540502979	673.632932101096	973.462356854303	954.298364781619	405.664379515235	1067.023777510406	726.453823903131	620.505331159883	1001.377906510409	609.181517933384	683.061894034083	1061.897012814729	565.703851089318	584.909652702179	1064.209825700284	470.526839601554	584.281764990895	1070.853346466033	784.580373880992	434.512596160214	1032.610180626333	642.822338874234	351.666767468056	1142.924410081421	601.901439597571	421.855126969253	1172.471153260722	526.340786060667	411.182003147036	1137.998788053055	451.226135688449	391.686932464425	1039.839719577825	351.170172381367	327.889145976623	1094.253971130988	227.298596138484	371.523080162142	1017.889846274489	383.469687890046	593.789216751979	941.316043324552	289.658182715504	665.618433731608	949.714948517033	194.441026460850	594.616031286493	786.231153238655	44.061007191858	584.031027256597	960.669122371526	95.213831708050	599.959859096277	876.757033935082	37.023808202304	649.616476975051	1082.983313559374	42.128553359038	616.999622885380	962.732543454629	76.068926459920	393.607637974270	1037.029592431773	68.686024196396	314.339492117705	1124.864779886697	123.564346158907	340.902228405748	1246.609766171829	64.281281626935	311.625741979581	797.956900035289	1098.275062498639	300.108974659744	744.261215838146	843.312839779853	322.903514832006	1127.164320874907	1099.488789173895	839.230424926754	1369.450916683107	1090.453283423391	759.905950707843	
